<svg 
 xmlns="http://www.w3.org/2000/svg"
 xmlns:xlink="http://www.w3.org/1999/xlink"
 width="27px" height="29px">
<path fill-rule="evenodd"  fill="rgb(121, 178, 96)"
 d="M26.328,2.220 C26.025,2.878 25.660,3.749 25.231,4.834 C24.799,5.919 24.346,7.086 23.866,8.336 C23.387,9.585 22.914,10.855 22.448,12.143 C21.979,13.430 21.556,14.593 21.178,15.626 C20.798,16.662 20.370,17.836 19.890,19.149 C19.686,19.603 19.462,20.013 19.208,20.378 C18.956,20.745 18.577,20.929 18.070,20.929 L4.970,20.929 C4.465,20.929 4.066,20.739 3.777,20.360 C3.485,19.982 3.278,19.579 3.152,19.149 L0.085,7.674 C-0.044,7.170 0.002,6.739 0.217,6.387 C0.431,6.032 0.991,5.856 1.901,5.856 L21.215,5.856 L23.489,0.934 C23.714,0.454 24.032,0.163 24.435,0.061 C24.840,-0.039 25.218,-0.007 25.569,0.158 C25.924,0.322 26.195,0.587 26.385,0.952 C26.574,1.319 26.555,1.741 26.328,2.220 ZM9.288,26.269 C9.288,27.026 9.020,27.668 8.489,28.199 C7.959,28.729 7.319,28.995 6.561,28.995 C5.777,28.995 5.121,28.729 4.591,28.199 C4.061,27.668 3.796,27.026 3.796,26.269 C3.796,25.512 4.061,24.862 4.591,24.317 C5.121,23.775 5.777,23.504 6.561,23.504 C7.319,23.504 7.959,23.775 8.489,24.317 C9.020,24.862 9.288,25.512 9.288,26.269 ZM18.792,26.269 C18.792,27.026 18.528,27.668 17.998,28.199 C17.467,28.729 16.823,28.995 16.066,28.995 C15.282,28.995 14.625,28.729 14.096,28.199 C13.566,27.668 13.300,27.026 13.300,26.269 C13.300,25.512 13.566,24.862 14.096,24.317 C14.625,23.775 15.282,23.504 16.066,23.504 C16.823,23.504 17.467,23.775 17.998,24.317 C18.528,24.862 18.792,25.512 18.792,26.269 Z"/>
</svg>